<?xml version="1.0" encoding="utf-8"?>
<!-- Generator: Adobe Illustrator 16.2.1, SVG Export Plug-In . SVG Version: 6.00 Build 0)  -->
<!DOCTYPE svg PUBLIC "-//W3C//DTD SVG 1.1//EN" "http://www.w3.org/Graphics/SVG/1.1/DTD/svg11.dtd">
<svg version="1.1" id="Layer_1" xmlns="http://www.w3.org/2000/svg" xmlns:xlink="http://www.w3.org/1999/xlink" x="0px" y="0px"
	 width="312.797px" height="54.283px" viewBox="0 0 312.797 54.283" enable-background="new 0 0 312.797 54.283"
	 xml:space="preserve">
<g>
	<g>
		<path fill="#27AAE1" d="M312.711,5.189l0.064-0.666c0.232-2.365-1.521-4.3-3.896-4.3H275.59c-2.376,0-4.129,1.935-3.896,4.3
			l0.065,0.666H312.711z"/>
		<path fill="#27AAE1" d="M271.957,7.189l2.868,29.095c0.233,2.365,2.368,4.299,4.743,4.299H304.9c2.377,0,4.512-1.934,4.744-4.299
			l2.869-29.095H271.957z"/>
	</g>
	<path fill="#A7A9AC" d="M41.148,38.632c0,0.211-0.141,1.764-0.282,1.833c-0.071,0.07-2.468,0.07-3.736,0.07
		c-1.128,0-3.031,0-3.102-0.142c-0.07-0.211-0.07-1.127-0.212-1.763l0.142-10.151c0.07-4.652-1.128-7.12-5.288-7.12
		c-2.044,0-3.524,1.48-4.018,3.031v5.217c0,3.735,0,7.613-0.07,9.094c0,0.141-0.142,1.34-0.353,1.763
		c-0.775,0.07-2.467,0.142-3.595,0.142c-1.128,0-2.89-0.07-2.961-0.211c-0.141-0.213-0.141-1.129-0.212-1.764l0.071-9.234
		c0-4.724-0.634-7.753-5.287-7.753c-2.045,0-4.23,1.48-5.005,3.172C7.1,26.295,7.029,33.909,7.029,38.42
		c0,0.917-0.141,1.976-0.282,2.115c-1.762,0.282-6.485,0.069-6.556,0c-0.07-0.212-0.211-0.423-0.141-1.058
		c-0.141-0.424,0.071-18.259,0-21.854c0-0.493,0.352-2.044,0.494-2.396c0.352-0.283,6.203-0.353,6.626,0.07
		c0,0.07,0.494,1.339,0.494,1.551c0.352,0,0.705-0.212,1.128-0.493c1.48-0.988,2.961-1.693,5.428-1.693
		c3.031,0,5.428,1.27,6.838,2.609c0.705,0,1.621-0.423,2.185-0.776c1.904-1.198,4.018-1.833,6.698-1.833
		c6.273,0,10.644,4.089,11.138,10.081c0.141,1.41,0.141,4.441,0.141,7.826C41.22,34.685,41.22,36.799,41.148,38.632"/>
	<path fill="#A7A9AC" d="M62.575,38.42c-0.282,0.636-6.274,11.983-7.613,14.522c-0.353,0.635-0.776,1.269-0.988,1.34
		c-0.775,0-5.004-2.538-5.568-3.104c-0.071-0.211,0.07-0.986,0.352-1.479l4.723-9.587c0.282-0.635-0.141-1.764-0.211-1.975
		l-8.953-22.559c0-0.282,0.282-0.352,0.423-0.352h0.564c1.48,0,6.063,0,6.203,0.07c0.282,0.07,0.564,0.141,0.846,0.916l4.935,13.042
		c0.211,0.493,0.352,1.41,0.846,1.551c0.493-0.141,0.634-1.058,0.846-1.551l5.075-13.112c0.353-0.846,0.917-0.916,1.128-0.916
		c0.142-0.142,4.018-0.072,5.499-0.072h0.987c0.212,0.072,0.352,0.353,0.352,0.353L62.575,38.42z"/>
	<path fill="#00AEEF" d="M84.456,41.381c-2.608,0-6.062-1.339-7.825-3.454c-0.564-0.635-0.846-1.479-0.916-2.044
		c0.423-0.847,2.044-2.608,2.961-3.243c0,0,1.057,0.142,1.48,0.493c1.41,1.269,3.031,2.187,4.653,2.187
		c1.621,0,2.397-0.775,2.397-2.045c0-0.986-0.847-1.902-3.948-3.524c-3.525-1.833-6.698-4.229-6.698-8.106
		c0-4.019,2.961-7.332,8.601-7.332c2.608,0,4.441,0.634,5.992,1.622c0.635,0.423,1.199,1.128,1.621,1.832
		c-0.493,1.057-1.832,3.173-2.537,3.525c-0.282,0-1.34-0.141-1.622-0.352c-1.057-0.705-2.396-0.988-3.313-0.988
		c-1.128,0-1.903,0.494-1.903,1.551c0,0.847,0.423,1.41,2.608,2.679c0.564,0.282,1.833,1.128,2.961,1.763
		c3.384,1.903,5.005,4.159,5.005,7.403C93.973,38.915,89.532,41.381,84.456,41.381"/>
	<path fill="#00AEEF" d="M123.863,39.901c0,0.281-0.211,0.494-0.282,0.563c-0.07,0.07-2.678,0.142-4.018,0.142
		c-1.128,0-2.961-0.07-3.102-0.211c-0.07-0.213-0.07,0-0.141-0.636l0.071-11.067c0-4.512-1.481-6.908-5.287-6.908
		c-3.949,0-5.006,3.736-5.076,7.05l-0.141,9.588c0,0.917-0.211,1.902-0.353,2.044c-0.141,0.141-1.41,0.211-2.819,0.211
		c-1.763,0-3.384-0.07-3.525-0.141c-0.141-0.141-0.423-1.128-0.423-1.764c-0.141-10.573-0.141-22.417-0.071-31.792
		c0-0.423,0-1.198,0.212-1.551c0.846-0.282,4.864-0.424,6.768-0.071c0.281,0.071,0.352,0.917,0.352,1.34
		c0,2.256,0.07,6.556,0.07,9.658c0.705,0,1.551-0.423,2.256-0.847c0.987-0.493,2.397-0.845,3.525-0.845
		c6.627,0,10.433,2.961,11.632,8.318c0.352,1.551,0.352,2.82,0.423,9.518C123.934,34.896,123.934,37.998,123.863,39.901"/>
	<path fill="#00AEEF" d="M140.572,40.676c-0.141,0.142-0.987,0.212-2.397,0.212c-1.762,0-3.595-0.07-3.665-0.212
		c-0.142-0.142-0.424-1.128-0.424-1.762c-0.07-5.217-0.07-9.588-0.07-14.875c-0.353-0.987-2.045-1.268-2.609-1.338
		c-0.281,0-2.819-0.142-3.736-0.424c-0.211-0.634-0.211-2.467-0.211-2.89c0-0.987,0.07-2.82,0.141-3.454
		c0.352-0.282,6.062-0.705,9.728-0.776c1.692,0,3.102,0.071,3.243,0.282c0.211,0.141,0.423,1.128,0.423,1.763
		c0.141,6.908,0.211,14.38,0,21.5C140.995,39.548,140.783,40.535,140.572,40.676 M135.99,9.306c-2.538,0-4.583-2.045-4.583-4.652
		c0-2.538,2.045-4.654,4.583-4.654c2.538,0,4.512,2.116,4.512,4.654C140.501,7.261,138.528,9.306,135.99,9.306"/>
	<path fill="#00AEEF" d="M166.136,23.899c-0.493-0.142-1.551-0.564-1.974-1.058c-0.916-0.987-1.833-1.621-3.877-1.621
		c-2.82,0-4.864,1.904-5.64,4.441v12.758c0,0.918-0.141,1.977-0.282,2.116c-1.762,0.282-6.697,0.069-6.768-0.07
		c-0.07-0.213-0.211-0.353-0.211-1.058c-0.07-0.354,0-18.4,0-22.066c0-0.422,0.423-1.691,0.564-2.044
		c0.141-0.141,1.479-0.212,2.891-0.212c1.621,0,3.383,0.071,3.595,0.283c0,0,0.352,1.128,0.352,1.34
		c0.282,0,0.776-0.142,1.269-0.495c1.269-0.986,3.031-1.55,4.653-1.55c4.371,0,7.261,1.692,8.741,4.159
		c0.281,0.494,0.424,0.846,0.564,1.763C169.025,21.784,167.688,23.194,166.136,23.899"/>
	<path fill="#00AEEF" d="M188.438,22.418c-0.353,0.282-0.985,0.493-1.762,0.634c-0.635,0-3.102-0.141-3.523,0l0.211,9.305
		c0.07,1.976,0.986,3.314,2.113,4.021c0.564,0.423,1.481,1.69,1.623,2.115c-0.636,1.196-2.68,3.241-3.879,3.946
		c-4.512-0.916-6.979-5.004-6.979-9.375c0-1.621-0.143-5.852-0.143-8.39v-1.41c-0.492-0.423-1.974-0.141-2.396-0.212
		c0,0-1.199-0.141-1.692-0.352c-0.141-0.705-0.141-2.75-0.141-3.384c0-1.339,0.211-2.115,0.211-2.397
		c0.354-0.282,0.986-0.353,1.762-0.423c0.494-0.07,1.833,0,2.188-0.14c0-2.891,0.141-4.794,0.141-7.896
		c0-0.635,0.282-1.622,0.423-1.763c0.142-0.07,1.128-0.212,2.82-0.212c1.479,0,3.172,0.072,3.312,0.212
		c0.211,0.141,0.424,1.128,0.424,1.974c-0.142,2.679,0,5.287,0,7.473c0.494,0.564,2.257,0.352,3.453,0.422
		c0,0,1.41,0.212,1.692,0.353c0.071,0.705,0.211,2.679,0.211,3.243C188.509,21.501,188.509,21.783,188.438,22.418"/>
	<path fill="#A7A9AC" d="M206.324,41.099c-2.327,0-4.582-1.057-5.287-2.043c-0.354,0.281-0.423,0.704-0.494,1.269
		c-1.057,0.424-5.71,0.493-6.203,0c-0.07-0.423-0.354-1.552-0.354-2.608c-0.07-8.389-0.141-22.699-0.07-29.89
		c0-0.635,0.212-1.833,0.424-2.468c0.635-0.211,2.96,0,5.921,0c0.142,0.565,0.354,2.045,0.354,2.468v5.428
		c0,2.397,0.211,3.384,0.634,3.808c0.353-0.142,0.635-0.353,0.987-0.706c0.846-0.917,3.031-1.692,4.723-1.692
		c8.318,0,12.9,6.345,12.9,13.253C219.859,35.037,214.359,41.099,206.324,41.099 M206.184,21.291c-2.75,0-4.724,2.114-5.287,4.159
		c-0.211,0.846-0.142,5.146,0,5.992c0.424,0.985,2.468,2.961,5.356,2.961c4.021,0,6.415-2.961,6.415-6.486
		C212.668,24.251,210.555,21.291,206.184,21.291"/>
	<path fill="#A7A9AC" d="M235.581,40.676c-0.142,0.142-0.987,0.212-2.397,0.212c-1.762,0-3.595-0.07-3.664-0.212
		c-0.143-0.142-0.424-1.128-0.424-1.762c-0.07-5.217-0.07-9.588-0.07-14.875c-0.354-0.987-2.045-1.268-2.608-1.338
		c-0.281,0-2.819-0.142-3.735-0.424c-0.211-0.634-0.211-2.467-0.211-2.89c0-0.987,0.069-2.82,0.141-3.454
		c0.353-0.282,6.062-0.705,9.729-0.776c1.691,0,3.102,0.071,3.243,0.282c0.211,0.141,0.423,1.128,0.423,1.763
		c0.141,6.908,0.211,14.38,0,21.5C236.004,39.548,235.792,40.535,235.581,40.676 M230.999,9.306c-2.538,0-4.583-2.045-4.583-4.652
		c0-2.538,2.045-4.654,4.583-4.654s4.512,2.116,4.512,4.654C235.511,7.261,233.537,9.306,230.999,9.306"/>
	<path fill="#A7A9AC" d="M268.148,38.632c-0.069,0.211-0.211,1.764-0.353,1.833c-0.069,0.07-2.608,0.07-3.876,0.07
		c-1.128,0-2.961,0-3.031-0.142c-0.072-0.211-0.072-1.127-0.213-1.763c0.07-2.749,0.141-7.401,0.141-10.292
		c0-4.301-1.338-6.909-5.355-6.909c-2.607,0-4.795,1.692-5.218,3.525c0,3.524-0.069,10.01-0.212,13.464
		c-0.069,0.917-0.141,1.975-0.353,2.115c-0.704,0.141-1.833,0.141-3.03,0.141c-1.764,0-3.596-0.141-3.666-0.211v0.07
		c-0.07-0.212-0.142-0.424-0.142-1.059c-0.069-0.423,0.07-18.188,0-21.783c0-0.494,0.353-2.044,0.494-2.397
		c0.142-0.142,1.62-0.212,3.103-0.212c1.69,0,3.453,0.07,3.735,0.282c0,0.071,0.492,1.199,0.492,1.41
		c0.354,0,0.987-0.211,1.41-0.564c1.128-0.775,2.397-1.551,4.864-1.551c7.332,0,10.504,4.794,11.067,9.658
		c0.07,0.916,0.212,5.358,0.212,9.517C268.221,35.601,268.221,37.222,268.148,38.632"/>
	<path fill="#FFFFFF" d="M306.246,16.29c-0.561-0.368-5.521-3.611-6.04-3.825c-0.529-0.221-4.142-0.899-4.652-0.899
		c-0.508,0-1.102,1.959-3.212,1.959c-2.103,0-2.766-1.959-3.197-1.959c-0.433,0-3.875,0.694-4.526,0.891
		c-0.657,0.196-5.517,3.462-6.068,3.835c-0.094,0.06-0.132,0.179-0.087,0.285l1.883,4.886c0.045,0.12,0.165,0.182,0.29,0.147
		l3.481-1.017v14.334h16.568V20.592l3.481,1.017c0.114,0.035,0.242-0.027,0.29-0.147l1.882-4.886
		C306.381,16.469,306.339,16.352,306.246,16.29"/>
</g>
</svg>
